<?xml version="1.0"?>
<svg width="512" height="512" xmlns="http://www.w3.org/2000/svg" xmlns:svg="http://www.w3.org/2000/svg" xmlns:se="http://svg-edit.googlecode.com" class="svg-inline--fa fa-sign-out-alt fa-w-16" data-icon="sign-out-alt" data-prefix="fal">
 <g class="layer">
  <title>Layer 1</title>
  <path d="m160,217.1c0,-8.8 7.2,-16 16,-16l144,0l0,-93.9c0,-7.1 8.6,-10.7 13.6,-5.7l141.6,143.1c6.3,6.3 6.3,16.4 0,22.7l-141.6,143.1c-5,5 -13.6,1.5 -13.6,-5.7l0,-93.9l-144,0c-8.8,0 -16,-7.2 -16,-16l0,-77.7m-32,0l0,77.7c0,26.5 21.5,48 48,48l112,0l0,61.9c0,35.5 43,53.5 68.2,28.3l141.7,-143c18.8,-18.8 18.8,-49.2 0,-68l-141.7,-143.1c-25.1,-25.1 -68.2,-7.3 -68.2,28.3l0,61.9l-112,0c-26.5,0 -48,21.6 -48,48zm-128,-105.1l0,288c0,26.5 21.5,48 48,48l132,0c6.6,0 12,-5.4 12,-12l0,-8c0,-6.6 -5.4,-12 -12,-12l-132,0c-8.8,0 -16,-7.2 -16,-16l0,-288c0,-8.8 7.2,-16 16,-16l132,0c6.6,0 12,-5.4 12,-12l0,-8c0,-6.6 -5.4,-12 -12,-12l-132,0c-26.5,0 -48,21.5 -48,48z" fill="#ffffff" id="svg_1"/>
 </g>
</svg>