<?xml version="1.0"?>
<svg width="576" height="512" xmlns="http://www.w3.org/2000/svg" xmlns:svg="http://www.w3.org/2000/svg" xmlns:se="http://svg-edit.googlecode.com" class="svg-inline--fa fa-star fa-w-18" data-icon="star" data-prefix="fal">
 <g class="layer">
  <title>Layer 1</title>
  <path d="m528.1,171.5l-146.1,-21.3l-65.3,-132.4c-11.7,-23.6 -45.6,-23.9 -57.4,0l-65.3,132.4l-146.1,21.3c-26.2,3.8 -36.7,36.1 -17.7,54.6l105.7,103l-25,145.5c-4.5,26.3 23.2,46 46.4,33.7l130.7,-68.7l130.7,68.7c23.2,12.2 50.9,-7.4 46.4,-33.7l-25,-145.5l105.7,-103c19,-18.5 8.5,-50.8 -17.7,-54.6zm-122.3,146.4l27.8,162l-145.6,-76.4l-145.5,76.5l27.8,-162l-117.8,-114.9l162.7,-23.6l72.8,-147.5l72.8,147.5l162.7,23.6l-117.7,114.8z" fill="#cddae2" id="svg_1"/>
 </g>
</svg>